<svg width="112" height="41" viewBox="0 0 112 41" fill="none" xmlns="http://www.w3.org/2000/svg">
<path d="M0 20C0 12.268 6.26801 6 14 6H32V24C32 31.732 25.732 38 18 38H0V20Z" fill="#00A05E"/>
<path d="M4 20C4 12.268 10.268 6 18 6H32V20C32 27.732 25.732 34 18 34H4V20Z" fill="url(#paint0_linear_9_80)"/>
<path d="M8 20C8 12.268 14.268 6 22 6H32V16C32 23.732 25.732 30 18 30H8V20Z" fill="url(#paint1_linear_9_80)"/>
<path d="M42.6953 32V10.584H47.2363V28.25H55.9229V32H42.6953ZM74.1895 23.7822C74.1895 25.1494 74.0039 26.3604 73.6328 27.415C73.2715 28.4697 72.7393 29.3633 72.0361 30.0957C71.3428 30.8184 70.5029 31.3652 69.5166 31.7363C68.54 32.1074 67.4365 32.293 66.2061 32.293C65.0537 32.293 63.9941 32.1074 63.0273 31.7363C62.0703 31.3652 61.2354 30.8184 60.5225 30.0957C59.8193 29.3633 59.2725 28.4697 58.8818 27.415C58.501 26.3604 58.3105 25.1494 58.3105 23.7822C58.3105 21.9658 58.6328 20.4277 59.2773 19.168C59.9219 17.9082 60.8398 16.9512 62.0312 16.2969C63.2227 15.6426 64.6436 15.3154 66.2939 15.3154C67.8271 15.3154 69.1846 15.6426 70.3662 16.2969C71.5576 16.9512 72.4902 17.9082 73.1641 19.168C73.8477 20.4277 74.1895 21.9658 74.1895 23.7822ZM62.8662 23.7822C62.8662 24.8564 62.9834 25.7598 63.2178 26.4922C63.4521 27.2246 63.8184 27.7764 64.3164 28.1475C64.8145 28.5186 65.4639 28.7041 66.2646 28.7041C67.0557 28.7041 67.6953 28.5186 68.1836 28.1475C68.6816 27.7764 69.043 27.2246 69.2676 26.4922C69.502 25.7598 69.6191 24.8564 69.6191 23.7822C69.6191 22.6982 69.502 21.7998 69.2676 21.0869C69.043 20.3643 68.6816 19.8223 68.1836 19.4609C67.6855 19.0996 67.0361 18.9189 66.2354 18.9189C65.0537 18.9189 64.1943 19.3242 63.6572 20.1348C63.1299 20.9453 62.8662 22.1611 62.8662 23.7822ZM82.6709 39.207C80.3857 39.207 78.6377 38.8066 77.4268 38.0059C76.2256 37.2148 75.625 36.1016 75.625 34.666C75.625 33.6797 75.9326 32.8545 76.5479 32.1904C77.1631 31.5264 78.0664 31.0527 79.2578 30.7695C78.7988 30.5742 78.3984 30.2568 78.0566 29.8174C77.7148 29.3682 77.5439 28.8945 77.5439 28.3965C77.5439 27.7715 77.7246 27.2539 78.0859 26.8438C78.4473 26.4238 78.9697 26.0137 79.6533 25.6133C78.7939 25.2422 78.1104 24.6465 77.6025 23.8262C77.1045 23.0059 76.8555 22.0391 76.8555 20.9258C76.8555 19.7344 77.1143 18.7236 77.6318 17.8936C78.1592 17.0537 78.9209 16.4141 79.917 15.9746C80.9229 15.5352 82.1436 15.3154 83.5791 15.3154C83.8818 15.3154 84.2334 15.335 84.6338 15.374C85.0342 15.4131 85.4004 15.457 85.7324 15.5059C86.0742 15.5547 86.3037 15.5938 86.4209 15.623H92.1338V17.8936L89.5703 18.5527C89.8047 18.9141 89.9805 19.2998 90.0977 19.71C90.2148 20.1201 90.2734 20.5547 90.2734 21.0137C90.2734 22.7715 89.6582 24.1436 88.4277 25.1299C87.207 26.1064 85.5078 26.5947 83.3301 26.5947C82.8125 26.5654 82.3242 26.5264 81.8652 26.4775C81.6406 26.6533 81.4697 26.8389 81.3525 27.0342C81.2354 27.2295 81.1768 27.4346 81.1768 27.6494C81.1768 27.8643 81.2646 28.0449 81.4404 28.1914C81.626 28.3281 81.8994 28.4355 82.2607 28.5137C82.6318 28.582 83.0908 28.6162 83.6377 28.6162H86.4209C88.2178 28.6162 89.585 29.002 90.5225 29.7734C91.4697 30.5449 91.9434 31.6777 91.9434 33.1719C91.9434 35.0859 91.1426 36.5703 89.541 37.625C87.9492 38.6797 85.6592 39.207 82.6709 39.207ZM82.8613 36.292C83.9258 36.292 84.8389 36.1895 85.6006 35.9844C86.3721 35.7891 86.9629 35.5059 87.373 35.1348C87.7832 34.7734 87.9883 34.3389 87.9883 33.8311C87.9883 33.4209 87.8662 33.0938 87.6221 32.8496C87.3877 32.6152 87.0264 32.4492 86.5381 32.3516C86.0596 32.2539 85.4443 32.2051 84.6924 32.2051H82.3779C81.8311 32.2051 81.3379 32.293 80.8984 32.4688C80.4688 32.6445 80.127 32.8887 79.873 33.2012C79.6191 33.5234 79.4922 33.8945 79.4922 34.3145C79.4922 34.9297 79.7852 35.4131 80.3711 35.7646C80.9668 36.1162 81.7969 36.292 82.8613 36.292ZM83.5791 23.8701C84.4189 23.8701 85.0342 23.6113 85.4248 23.0938C85.8154 22.5762 86.0107 21.873 86.0107 20.9844C86.0107 19.998 85.8057 19.2607 85.3955 18.7725C84.9951 18.2744 84.3896 18.0254 83.5791 18.0254C82.7588 18.0254 82.1436 18.2744 81.7334 18.7725C81.3232 19.2607 81.1182 19.998 81.1182 20.9844C81.1182 21.873 81.3184 22.5762 81.7188 23.0938C82.1289 23.6113 82.749 23.8701 83.5791 23.8701ZM109.727 23.7822C109.727 25.1494 109.541 26.3604 109.17 27.415C108.809 28.4697 108.276 29.3633 107.573 30.0957C106.88 30.8184 106.04 31.3652 105.054 31.7363C104.077 32.1074 102.974 32.293 101.743 32.293C100.591 32.293 99.5312 32.1074 98.5645 31.7363C97.6074 31.3652 96.7725 30.8184 96.0596 30.0957C95.3564 29.3633 94.8096 28.4697 94.4189 27.415C94.0381 26.3604 93.8477 25.1494 93.8477 23.7822C93.8477 21.9658 94.1699 20.4277 94.8145 19.168C95.459 17.9082 96.377 16.9512 97.5684 16.2969C98.7598 15.6426 100.181 15.3154 101.831 15.3154C103.364 15.3154 104.722 15.6426 105.903 16.2969C107.095 16.9512 108.027 17.9082 108.701 19.168C109.385 20.4277 109.727 21.9658 109.727 23.7822ZM98.4033 23.7822C98.4033 24.8564 98.5205 25.7598 98.7549 26.4922C98.9893 27.2246 99.3555 27.7764 99.8535 28.1475C100.352 28.5186 101.001 28.7041 101.802 28.7041C102.593 28.7041 103.232 28.5186 103.721 28.1475C104.219 27.7764 104.58 27.2246 104.805 26.4922C105.039 25.7598 105.156 24.8564 105.156 23.7822C105.156 22.6982 105.039 21.7998 104.805 21.0869C104.58 20.3643 104.219 19.8223 103.721 19.4609C103.223 19.0996 102.573 18.9189 101.772 18.9189C100.591 18.9189 99.7314 19.3242 99.1943 20.1348C98.667 20.9453 98.4033 22.1611 98.4033 23.7822Z" fill="url(#paint2_linear_9_80)"/>
<defs>
<linearGradient id="paint0_linear_9_80" x1="22.5" y1="14.5" x2="4" y2="34" gradientUnits="userSpaceOnUse">
<stop stop-color="#D2D705"/>
<stop offset="1" stop-color="#00A05E"/>
</linearGradient>
<linearGradient id="paint1_linear_9_80" x1="8" y1="30" x2="33" y2="6" gradientUnits="userSpaceOnUse">
<stop stop-color="#00A05E"/>
<stop offset="1" stop-color="#D2D705"/>
</linearGradient>
<linearGradient id="paint2_linear_9_80" x1="42.5" y1="37" x2="120" y2="8" gradientUnits="userSpaceOnUse">
<stop stop-color="#00A05E"/>
<stop offset="1" stop-color="#D2D705"/>
</linearGradient>
</defs>
</svg>
